<svg class="svg-icon" style="width: 1em;height: 1em;vertical-align: middle;fill: currentColor;overflow: hidden;" viewBox="0 0 1024 1024" version="1.1" xmlns="http://www.w3.org/2000/svg"><path d="M443.72992 102.4v204.8a68.28032 68.28032 0 0 1-68.25984 68.25984V102.4H307.2v273.05984A68.29056 68.29056 0 0 1 238.92992 307.2V102.4h-68.25984v204.8c0 63.52896 43.60192 116.45952 102.4 131.65568v414.47424a68.25984 68.25984 0 1 0 136.52992 0V438.85568C468.39808 423.65952 512 370.72896 512 307.2V102.4h-68.27008zM580.27008 102.4v750.92992a68.25984 68.25984 0 1 0 136.52992 0v-204.8h136.52992V375.45984C853.32992 224.65536 731.07456 102.4 580.27008 102.4z"  /></svg>