<svg class="svg-icon" viewBox="0 0 1024 1024" version="1.1" xmlns="http://www.w3.org/2000/svg"><path d="M831.159892 266.000316l-7.571089-2.955559h-131.745058l14.57536-91.095998L60.852127 107.655227l83.039064 192.070852C55.872213 370.416574 0 474.02309 0 589.897201c0 100.61047 42.349518 192.030365 111.096631 260.656017H728.76799c68.747114-68.625652 111.096631-160.045548 111.096631-260.656017 0-91.298434-34.697454-175.106753-92.513047-241.141231h58.908745c36.681322 18.097738 201.099478 117.169698 99.314883 398.595604a42.835363 42.835363 0 1 0 80.56935 29.110232c112.635142-311.305393-52.106911-470.014866-154.98466-510.46149z m-53.24055 241.748537H61.945279c14.372924-80.731298 60.24482-151.624229 125.591017-201.868733h464.387158c17.004586 13.03685 32.875534 27.207338 47.046023 42.835363 40.325162 44.69777 68.301755 99.152934 78.949865 159.03337zM728.76799 876.181559H128.829986c-8.866677 0-16.073383 8.988139-16.073383 20.081607 0 11.052981 7.206706 20.081607 16.073383 20.081607H728.76799c8.866677 0 16.032896-9.028626 16.032896-20.081607 0-11.093468-7.166219-20.081607-16.032896-20.081607z"  /></svg>