<svg class="svg-icon" viewBox="0 0 1024 1024" version="1.1" xmlns="http://www.w3.org/2000/svg"><path d="M886.07 442.112l-88.435-240.971c-15.18-41.364-54.983-69.156-99.046-69.156H327.292c-44.062 0-83.865 27.792-99.045 69.156l-88.434 240.971c-11.868 32.337-7.18 68.505 12.54 96.749 19.72 28.243 52.059 45.104 86.505 45.104h241.583v187.321h-59.829c-35.656 0-64.665 29.009-64.665 64.665s29.009 64.665 64.665 64.665H603.77c35.656 0 64.664-29.009 64.664-64.665s-29.008-64.665-64.664-64.665h-67.329V583.965H700.93v96.993c0 15.464 12.536 28 28 28s28-12.536 28-28v-96.993h30.094c34.446 0 66.784-16.861 86.505-45.104 19.72-28.244 24.409-64.411 12.541-96.749zM612.435 835.951c0 4.778-3.887 8.665-8.664 8.665H420.613c-4.778 0-8.665-3.887-8.665-8.665s3.887-8.665 8.665-8.665h183.158c4.777 0 8.664 3.887 8.664 8.665z m215.179-329.15c-9.392 13.45-24.186 21.164-40.59 21.164H238.858c-16.404 0-31.198-7.714-40.589-21.164-9.391-13.45-11.536-29.996-5.884-45.396l88.434-240.971c7.123-19.409 25.799-32.449 46.474-32.449H698.59c20.675 0 39.352 13.04 46.474 32.449l88.435 240.971c5.651 15.4 3.506 31.946-5.885 45.396z"  /></svg>