<svg class="svg-icon" height="14" width="14" viewBox="0 0 1024 1024" version="1.1" xmlns="http://www.w3.org/2000/svg"><path d="M204.8 404.492481a76.8048 76.8048 0 1 0 76.8048-76.804801 76.8048 76.8048 0 0 0-76.8048 76.804801z m138.248641-122.887681a76.8048 76.8048 0 1 0 76.8048-76.8048 76.8048 76.8048 0 0 0-76.817601 76.8048z m184.33152 0a76.8048 76.8048 0 1 0 76.804801-76.8048 76.8048 76.8048 0 0 0-76.817602 76.8048z m138.248641 122.887681a76.8048 76.8048 0 1 0 76.8048-76.804801 76.8048 76.8048 0 0 0-76.830402 76.804801z m10.445453 164.656691c-26.88168-31.182749-49.308682-58.064429-76.190362-89.247178a130.568161 130.568161 0 0 0-53.609751-40.552935 70.250791 70.250791 0 0 0-10.138234-2.56016 190.181486 190.181486 0 0 0-48.233414 0 82.347547 82.347547 0 0 0-10.138234 2.56016 130.568161 130.568161 0 0 0-53.60975 40.552935c-26.88168 31.182749-49.308682 58.064429-76.190362 89.247178-40.245715 40.092106-89.6056 84.7925-80.645041 147.298806a96.825252 96.825252 0 0 0 71.684481 71.428464c22.427002 4.454678 94.009076-13.364035 170.25064-13.364035 0.921658 0 1.843315 0.15361 2.764973 0.15361s1.843315-0.15361 2.764973-0.15361c76.190362 0 147.759635 17.818714 170.250641 13.364035a97.081268 97.081268 0 0 0 71.68448-71.428464c8.96056-62.519107-40.245715-107.2067-80.64504-147.298806z"  /></svg>