<svg class="svg-icon" style="width: 1em; height: 1em;vertical-align: middle;fill: currentColor;overflow: hidden;" viewBox="0 0 1024 1024" version="1.1" xmlns="http://www.w3.org/2000/svg"><path d="M777.142857 746.857143l20 90.857143q1.714286 6.857143-1.714286 12.857143t-9.714286 8.285714l-2.857143 0.571429q-2.285714 1.142857-6 2t-9.142857 2.571429-12.285714 3.142857-14.571429 2.857143-17.142857 2.857143-19.142857 2.571429-20.857143 1.714286-22 0.571429q-133.714286 0-233.714286-74.571429t-136-200.857143l-54.285714 0q-7.428571 0-12.857143-5.428571t-5.428571-12.857143l0-64.571429q0-7.428571 5.428571-12.857143t12.857143-5.428571l37.714286 0q-1.142857-32.571429 0.571429-60l-38.285714 0q-8 0-13.142857-5.142857t-5.142857-13.142857l0-65.142857q0-8 5.142857-13.142857t13.142857-5.142857l56 0q38.285714-120 139.142857-193.142857t228.857143-73.142857q58.285714 0 110.857143 13.142857 6.285714 1.714286 11.428571 8.571429 3.428571 6.285714 1.714286 13.714286l-24.571429 90.857143q-1.714286 7.428571-8 11.142857t-13.714286 1.428571l-2.285714-0.571429q-2.285714-0.571429-6.571429-1.428571l-10-2-12.857143-2-14.857143-1.714286-16.571429-1.428571-16.857143-0.571429q-72 0-129.142857 36.571429t-85.714286 100.571429l267.428571 0q9.142857 0 14.285714 6.857143 5.714286 6.857143 4 14.857143l-13.714286 65.142857q-2.857143 14.857143-18.285714 14.857143l-278.857143 0q-1.714286 21.142857 0 60l262.285714 0q8.571429 0 14.285714 6.857143 5.142857 6.857143 3.428571 15.428571l-13.714286 64q-1.142857 6.285714-6.285714 10.571429t-11.428571 4.285714l-221.142857 0q27.428571 66.857143 85.428571 106t130.571429 39.142857q10.285714 0 20.571429-0.857143t19.142857-2 16.857143-2.571429 14-2.857143 10.571429-2.571429l6.857143-1.714286 2.857143-1.142857q7.428571-2.857143 14.857143 1.142857 6.857143 4 8.571429 12z"  /></svg>